<svg width="160" height="53" viewBox="0 0 160 53" fill="none" xmlns="http://www.w3.org/2000/svg">
<g clip-path="url(#clip0_113_264)">
<path d="M152 0.662109H7.99996C3.94987 0.662109 0.666626 3.92483 0.666626 7.94961V45.0496C0.666626 49.0744 3.94987 52.3371 7.99996 52.3371H152C156.05 52.3371 159.333 49.0744 159.333 45.0496V7.94961C159.333 3.92483 156.05 0.662109 152 0.662109Z" fill="black"/>
<path d="M152 0.662109H7.99996C3.94987 0.662109 0.666626 3.92483 0.666626 7.94961V45.0496C0.666626 49.0744 3.94987 52.3371 7.99996 52.3371H152C156.05 52.3371 159.333 49.0744 159.333 45.0496V7.94961C159.333 3.92483 156.05 0.662109 152 0.662109Z" stroke="#A6A6A6"/>
<path d="M23.7397 25.7871L10.7861 39.7582C10.7873 39.7607 10.7873 39.7644 10.7886 39.7669C11.1864 41.2839 12.5491 42.4004 14.1672 42.4004C14.8144 42.4004 15.4216 42.2223 15.9423 41.9108L15.9836 41.886L30.5639 33.3364L23.7397 25.7871Z" fill="#EA4335"/>
<path d="M36.8442 23.408L36.832 23.3994L30.5372 19.6914L23.4453 26.1045L30.5626 33.3349L36.8236 29.6642C37.9209 29.0607 38.6668 27.8849 38.6668 26.5299C38.6668 25.1822 37.9318 24.0126 36.8442 23.408Z" fill="#FBBC04"/>
<path d="M10.7859 13.2412C10.708 13.533 10.6666 13.8396 10.6666 14.1562V38.8443C10.6666 39.1608 10.708 39.4674 10.7871 39.758L24.1848 26.1441L10.7859 13.2412Z" fill="#4285F4"/>
<path d="M23.8356 26.5005L30.5392 19.6892L15.976 11.1087C15.4468 10.786 14.8286 10.6006 14.1681 10.6006C12.5499 10.6006 11.1848 11.7195 10.787 13.2378L10.7858 13.2415L23.8356 26.5005Z" fill="#34A853"/>
<path d="M52.7754 9.78374C51.9707 9.78374 51.3379 10.0671 50.877 10.6339C50.4161 11.2006 50.1856 11.9828 50.1856 12.9804C50.1856 14.0247 50.4063 14.8146 50.8477 15.3503C51.293 15.886 51.9357 16.1538 52.7754 16.1538C53.1387 16.1538 53.4903 16.1188 53.8302 16.049C54.1699 15.9752 54.5235 15.8821 54.8907 15.7696V16.9631C54.2189 17.2155 53.4571 17.3417 52.6055 17.3417C51.3517 17.3417 50.3887 16.9651 49.7169 16.2121C49.045 15.4551 48.709 14.3739 48.709 12.9688C48.709 12.0837 48.8711 11.3093 49.1954 10.6455C49.5235 9.98171 49.9962 9.47318 50.6134 9.11994C51.2306 8.76669 51.9551 8.59007 52.7871 8.59007C53.6622 8.59007 54.4707 8.77252 55.213 9.13742L54.709 10.2961C54.4199 10.1603 54.1134 10.0419 53.7891 9.94095C53.4689 9.83614 53.1309 9.78374 52.7754 9.78374ZM62.3379 13.9935C62.3379 15.0456 62.0665 15.8666 61.5235 16.4566C60.9806 17.0466 60.2247 17.3417 59.2559 17.3417C58.6504 17.3417 58.1153 17.2059 57.6505 16.9341C57.1857 16.6624 56.8282 16.2723 56.5782 15.7637C56.3282 15.2552 56.2031 14.6652 56.2031 13.9935C56.2031 12.9494 56.4727 12.1342 57.0118 11.548C57.5509 10.9619 58.3106 10.6688 59.2911 10.6688C60.2286 10.6688 60.9707 10.9696 61.5176 11.5713C62.0644 12.1691 62.3379 12.9766 62.3379 13.9935ZM57.6211 13.9935C57.6211 15.4803 58.1739 16.2236 59.2794 16.2236C60.3731 16.2236 60.9199 15.4803 60.9199 13.9935C60.9199 12.5224 60.3692 11.7868 59.2676 11.7868C58.6895 11.7868 58.2695 11.977 58.0079 12.3574C57.7501 12.7378 57.6211 13.2832 57.6211 13.9935ZM69.3867 17.2252H68.0039V13.2541C68.0039 12.7611 67.9102 12.3943 67.7227 12.1536C67.5353 11.909 67.2422 11.7868 66.8438 11.7868C66.3126 11.7868 65.9219 11.9595 65.6719 12.305C65.4258 12.6466 65.3029 13.2172 65.3029 14.0169V17.2252H63.9258V10.7853H65.0039L65.1973 11.6296H65.2676C65.4472 11.3229 65.7071 11.0861 66.047 10.9192C66.3907 10.7523 66.7677 10.6688 67.1778 10.6688C68.1739 10.6688 68.834 11.0065 69.1583 11.682H69.2521C69.4434 11.3636 69.713 11.1152 70.0606 10.9366C70.4083 10.7581 70.8067 10.6688 71.2559 10.6688C72.0294 10.6688 72.5918 10.8629 72.9434 11.2511C73.2989 11.6393 73.4766 12.2312 73.4766 13.027V17.2252H72.0997V13.2541C72.0997 12.7611 72.0039 12.3943 71.8126 12.1536C71.6251 11.909 71.3321 11.7868 70.9337 11.7868C70.3985 11.7868 70.0059 11.9537 69.7559 12.2875C69.5098 12.6175 69.3867 13.126 69.3867 13.8131V17.2252ZM76.7754 17.2252H75.3985V10.7853H76.7754V17.2252ZM75.3165 9.07918C75.3165 8.83463 75.3829 8.64636 75.5157 8.51437C75.6525 8.38239 75.8458 8.31641 76.0958 8.31641C76.3379 8.31641 76.5254 8.38239 76.6583 8.51437C76.795 8.64636 76.8634 8.83463 76.8634 9.07918C76.8634 9.31209 76.795 9.49648 76.6583 9.63234C76.5254 9.76433 76.3379 9.83032 76.0958 9.83032C75.8458 9.83032 75.6525 9.76433 75.5157 9.63234C75.3829 9.49648 75.3165 9.31209 75.3165 9.07918ZM84.4513 17.2252H83.0685V13.2657C83.0685 12.7689 82.9669 12.3981 82.7638 12.1536C82.5645 11.909 82.2462 11.7868 81.8086 11.7868C81.2266 11.7868 80.8009 11.9576 80.5313 12.2992C80.2618 12.6408 80.127 13.2133 80.127 14.0169V17.2252H78.7501V10.7853H79.8282L80.0215 11.6296H80.0918C80.2871 11.3229 80.5645 11.0861 80.9239 10.9192C81.2833 10.7523 81.6817 10.6688 82.1193 10.6688C83.6739 10.6688 84.4513 11.4549 84.4513 13.027V17.2252ZM91.8399 10.7853V11.5364L90.7325 11.7402C90.8341 11.876 90.918 12.043 90.9844 12.2409C91.0508 12.4389 91.0841 12.6485 91.0841 12.8698C91.0841 13.5336 90.8535 14.0557 90.3926 14.4361C89.9317 14.8165 89.297 15.0068 88.4883 15.0068C88.2813 15.0068 88.0938 14.9913 87.9258 14.9601C87.629 15.1426 87.4806 15.3562 87.4806 15.6006C87.4806 15.7482 87.5488 15.8589 87.6856 15.9325C87.8262 16.0063 88.082 16.0432 88.4531 16.0432H89.5841C90.2989 16.0432 90.8418 16.1946 91.213 16.4974C91.5841 16.8002 91.7695 17.2369 91.7695 17.8076C91.7695 18.5372 91.4669 19.1001 90.8614 19.4961C90.2559 19.892 89.3809 20.09 88.2363 20.09C87.3535 20.09 86.6798 19.9347 86.2149 19.6241C85.7501 19.3137 85.5177 18.8711 85.5177 18.2966C85.5177 17.9007 85.6426 17.5668 85.8926 17.295C86.1466 17.0273 86.5 16.841 86.9531 16.7362C86.7695 16.6585 86.6173 16.5342 86.4962 16.3634C86.379 16.1888 86.3203 16.0063 86.3203 15.8161C86.3203 15.5755 86.3887 15.3717 86.5254 15.2047C86.6622 15.0378 86.8652 14.8728 87.1348 14.7098C86.7988 14.5662 86.5254 14.3333 86.3145 14.011C86.1075 13.6849 86.0039 13.3045 86.0039 12.8698C86.0039 12.1711 86.2247 11.6296 86.666 11.2453C87.1114 10.8609 87.7442 10.6688 88.5645 10.6688C88.7481 10.6688 88.9395 10.6824 89.1387 10.7096C89.3418 10.7328 89.4942 10.7581 89.5958 10.7853H91.8399ZM86.748 18.2268C86.748 18.5217 86.8809 18.7488 87.1466 18.908C87.4161 19.0671 87.793 19.1467 88.2774 19.1467C89.0274 19.1467 89.586 19.0399 89.9531 18.8265C90.3203 18.613 90.5039 18.3296 90.5039 17.9764C90.5039 17.6969 90.4025 17.497 90.1993 17.3767C90.0001 17.2602 89.627 17.2019 89.0802 17.2019H88.0371C87.6426 17.2019 87.3282 17.2932 87.0938 17.4756C86.8634 17.6619 86.748 17.9124 86.748 18.2268ZM87.3399 12.8698C87.3399 13.2735 87.4434 13.5841 87.6505 13.8014C87.8614 14.0188 88.1622 14.1275 88.5528 14.1275C89.3496 14.1275 89.748 13.7044 89.748 12.8581C89.748 12.4389 89.6485 12.1167 89.4493 11.8916C89.2539 11.6625 88.9551 11.548 88.5528 11.548C88.1543 11.548 87.8516 11.6606 87.6446 11.8857C87.4415 12.1109 87.3399 12.4389 87.3399 12.8698ZM101.25 14.9136C101.25 15.6706 100.975 16.2645 100.424 16.6953C99.8731 17.1262 99.1134 17.3417 98.1446 17.3417C97.1758 17.3417 96.3829 17.1922 95.7657 16.8933V15.5773C96.1563 15.7598 96.5703 15.9034 97.0079 16.0082C97.4492 16.113 97.8594 16.1655 98.2383 16.1655C98.793 16.1655 99.2013 16.0607 99.463 15.8511C99.7286 15.6414 99.8614 15.36 99.8614 15.0068C99.8614 14.6884 99.7403 14.4186 99.498 14.1973C99.2559 13.9762 98.7559 13.7141 97.998 13.4113C97.2168 13.0969 96.6661 12.7378 96.3458 12.3341C96.0254 11.9304 95.8653 11.4452 95.8653 10.8784C95.8653 10.168 96.1193 9.60905 96.627 9.20147C97.1349 8.79387 97.8165 8.59007 98.6719 8.59007C99.4922 8.59007 100.309 8.76864 101.121 9.12577L100.676 10.2612C99.914 9.9429 99.2345 9.78374 98.6367 9.78374C98.1837 9.78374 97.8399 9.88273 97.6055 10.0807C97.3711 10.2748 97.2539 10.5329 97.2539 10.8551C97.2539 11.0764 97.3009 11.2666 97.3946 11.4258C97.4883 11.581 97.6426 11.7285 97.8575 11.8683C98.0723 12.008 98.459 12.1924 99.0177 12.4214C99.6466 12.6815 100.108 12.9241 100.4 13.1493C100.693 13.3745 100.908 13.6286 101.045 13.9121C101.182 14.1955 101.25 14.5292 101.25 14.9136ZM108.51 13.9935C108.51 15.0456 108.238 15.8666 107.695 16.4566C107.152 17.0466 106.397 17.3417 105.428 17.3417C104.822 17.3417 104.287 17.2059 103.822 16.9341C103.358 16.6624 103 16.2723 102.75 15.7637C102.5 15.2552 102.375 14.6652 102.375 13.9935C102.375 12.9494 102.645 12.1342 103.184 11.548C103.723 10.9619 104.482 10.6688 105.463 10.6688C106.4 10.6688 107.143 10.9696 107.69 11.5713C108.236 12.1691 108.51 12.9766 108.51 13.9935ZM103.793 13.9935C103.793 15.4803 104.346 16.2236 105.451 16.2236C106.545 16.2236 107.092 15.4803 107.092 13.9935C107.092 12.5224 106.541 11.7868 105.44 11.7868C104.861 11.7868 104.442 11.977 104.18 12.3574C103.922 12.7378 103.793 13.2832 103.793 13.9935ZM115.846 13.9935C115.846 15.0456 115.574 15.8666 115.031 16.4566C114.488 17.0466 113.732 17.3417 112.764 17.3417C112.158 17.3417 111.623 17.2059 111.158 16.9341C110.693 16.6624 110.336 16.2723 110.086 15.7637C109.836 15.2552 109.711 14.6652 109.711 13.9935C109.711 12.9494 109.981 12.1342 110.52 11.548C111.059 10.9619 111.818 10.6688 112.799 10.6688C113.736 10.6688 114.479 10.9696 115.025 11.5713C115.572 12.1691 115.846 12.9766 115.846 13.9935ZM111.129 13.9935C111.129 15.4803 111.682 16.2236 112.787 16.2236C113.881 16.2236 114.428 15.4803 114.428 13.9935C114.428 12.5224 113.877 11.7868 112.775 11.7868C112.197 11.7868 111.777 11.977 111.516 12.3574C111.258 12.7378 111.129 13.2832 111.129 13.9935ZM123.135 17.2252H121.752V13.2657C121.752 12.7689 121.65 12.3981 121.447 12.1536C121.248 11.909 120.93 11.7868 120.492 11.7868C119.91 11.7868 119.484 11.9576 119.215 12.2992C118.945 12.6408 118.811 13.2133 118.811 14.0169V17.2252H117.434V10.7853H118.512L118.705 11.6296H118.775C118.971 11.3229 119.248 11.0861 119.608 10.9192C119.967 10.7523 120.365 10.6688 120.803 10.6688C122.358 10.6688 123.135 11.4549 123.135 13.027V17.2252Z" fill="white"/>
<path d="M124.691 38.9675H126.863V24.3771H124.691V38.9675ZM144.252 29.6327L141.763 35.9585H141.688L139.104 29.6327H136.764L140.639 38.4738L138.431 43.392H140.695L146.667 29.6327H144.252ZM131.936 37.31C131.223 37.31 130.232 36.9541 130.232 36.0706C130.232 34.9454 131.467 34.5136 132.534 34.5136C133.488 34.5136 133.939 34.7202 134.519 35.0015C134.349 36.353 133.189 37.31 131.936 37.31ZM132.198 29.314C130.625 29.314 128.996 30.0085 128.323 31.548L130.251 32.3545C130.663 31.548 131.429 31.2842 132.235 31.2842C133.359 31.2842 134.5 31.9599 134.519 33.1621V33.3116C134.125 33.0862 133.284 32.749 132.254 32.749C130.176 32.749 128.06 33.8939 128.06 36.0332C128.06 37.9859 129.764 39.244 131.673 39.244C133.133 39.244 133.939 38.5869 134.444 37.8166H134.519V38.9429H136.615V33.3488C136.615 30.759 134.687 29.314 132.198 29.314ZM118.776 31.4091H115.687V26.4079H118.776C120.4 26.4079 121.321 27.756 121.321 28.9079C121.321 30.0388 120.4 31.4091 118.776 31.4091ZM118.72 24.3771H113.517V38.9675H115.687V33.4398H118.72C121.127 33.4398 123.493 31.6915 123.493 28.9079C123.493 26.1244 121.127 24.3771 118.72 24.3771ZM90.3444 37.3124C88.8443 37.3124 87.5884 36.0531 87.5884 34.3233C87.5884 32.575 88.8443 31.2958 90.3444 31.2958C91.826 31.2958 92.9875 32.575 92.9875 34.3233C92.9875 36.0531 91.826 37.3124 90.3444 37.3124ZM92.8385 30.4497H92.7629C92.2752 29.8674 91.3384 29.3409 90.1571 29.3409C87.6815 29.3409 85.4132 31.5211 85.4132 34.3233C85.4132 37.1058 87.6815 39.2685 90.1571 39.2685C91.3384 39.2685 92.2752 38.7421 92.7629 38.1399H92.8385V38.8554C92.8385 40.7542 91.826 41.7697 90.1943 41.7697C88.8628 41.7697 88.0376 40.8103 87.7001 40.0015L85.8065 40.7916C86.3501 42.1081 87.7944 43.7246 90.1943 43.7246C92.7443 43.7246 94.9009 42.2202 94.9009 38.5542V29.6409H92.8385V30.4497ZM96.4011 38.9675H98.5763V24.376H96.4011V38.9675ZM101.782 34.1541C101.726 32.2366 103.263 31.2585 104.369 31.2585C105.232 31.2585 105.963 31.6904 106.207 32.3113L101.782 34.1541ZM108.532 32.4992C108.12 31.3904 106.863 29.3409 104.294 29.3409C101.744 29.3409 99.6261 31.3519 99.6261 34.3048C99.6261 37.0872 101.726 39.2685 104.538 39.2685C106.807 39.2685 108.12 37.8773 108.663 37.0685L106.976 35.9398C106.414 36.7674 105.644 37.3124 104.538 37.3124C103.432 37.3124 102.644 36.8047 102.138 35.8092L108.757 33.0629L108.532 32.4992ZM55.8001 30.864V32.9696H60.8245C60.6744 34.1541 60.2809 35.019 59.6816 35.6201C58.9495 36.3542 57.8055 37.1631 55.8001 37.1631C52.7055 37.1631 50.2869 34.6619 50.2869 31.5597C50.2869 28.4562 52.7055 25.9562 55.8001 25.9562C57.4691 25.9562 58.6876 26.6145 59.5873 27.4608L61.0689 25.9749C59.8119 24.7717 58.1441 23.8496 55.8001 23.8496C51.5625 23.8496 48 27.3101 48 31.5597C48 35.8092 51.5625 39.2685 55.8001 39.2685C58.0871 39.2685 59.8119 38.5158 61.162 37.1058C62.5505 35.7146 62.9811 33.7597 62.9811 32.1794C62.9811 31.6904 62.9439 31.2398 62.8683 30.864H55.8001ZM68.6944 37.3124C67.1943 37.3124 65.9 36.0718 65.9 34.3048C65.9 32.5179 67.1943 31.2958 68.6944 31.2958C70.1935 31.2958 71.4877 32.5179 71.4877 34.3048C71.4877 36.0718 70.1935 37.3124 68.6944 37.3124ZM68.6944 29.3409C65.9559 29.3409 63.7248 31.4278 63.7248 34.3048C63.7248 37.1631 65.9559 39.2685 68.6944 39.2685C71.4319 39.2685 73.6629 37.1631 73.6629 34.3048C73.6629 31.4278 71.4319 29.3409 68.6944 29.3409ZM79.5333 37.3124C78.0332 37.3124 76.7389 36.0718 76.7389 34.3048C76.7389 32.5179 78.0332 31.2958 79.5333 31.2958C81.0336 31.2958 82.3267 32.5179 82.3267 34.3048C82.3267 36.0718 81.0336 37.3124 79.5333 37.3124ZM79.5333 29.3409C76.796 29.3409 74.5649 31.4278 74.5649 34.3048C74.5649 37.1631 76.796 39.2685 79.5333 39.2685C82.2708 39.2685 84.5019 37.1631 84.5019 34.3048C84.5019 31.4278 82.2708 29.3409 79.5333 29.3409Z" fill="white"/>
</g>
<defs>
<clipPath id="clip0_113_264">
<rect width="160" height="53" fill="white"/>
</clipPath>
</defs>
</svg>
