<svg width="160" height="53" viewBox="0 0 160 53" fill="none" xmlns="http://www.w3.org/2000/svg">
<g clip-path="url(#clip0_113_257)">
<path d="M152 0.662109H7.99996C3.94987 0.662109 0.666626 3.92483 0.666626 7.94961V45.0496C0.666626 49.0744 3.94987 52.3371 7.99996 52.3371H152C156.05 52.3371 159.333 49.0744 159.333 45.0496V7.94961C159.333 3.92483 156.05 0.662109 152 0.662109Z" fill="black"/>
<path d="M152 0.662109H7.99996C3.94987 0.662109 0.666626 3.92483 0.666626 7.94961V45.0496C0.666626 49.0744 3.94987 52.3371 7.99996 52.3371H152C156.05 52.3371 159.333 49.0744 159.333 45.0496V7.94961C159.333 3.92483 156.05 0.662109 152 0.662109Z" stroke="#A6A6A6"/>
<path d="M32.9393 27.511C32.9554 26.2921 33.2892 25.097 33.9094 24.0368C34.5296 22.9767 35.4161 22.086 36.4864 21.4477C35.8064 20.5055 34.9094 19.7302 33.8666 19.1832C32.8237 18.6361 31.6638 18.3327 30.4789 18.2967C27.9513 18.0394 25.501 19.7641 24.213 19.7641C22.9001 19.7641 20.917 18.3223 18.7816 18.3649C17.4002 18.4082 16.0541 18.7979 14.8742 19.4961C13.6944 20.1941 12.721 21.1768 12.0489 22.3485C9.13798 27.2382 11.3093 34.4246 14.0978 38.3772C15.4929 40.3126 17.1234 42.4745 19.257 42.3979C21.3448 42.3138 22.1245 41.1062 24.6446 41.1062C27.1414 41.1062 27.873 42.3979 30.0498 42.3491C32.2901 42.3138 33.7016 40.4051 35.0478 38.4513C36.0502 37.0722 36.8216 35.548 37.3333 33.9353C36.0317 33.4012 34.921 32.5072 34.1397 31.3648C33.3582 30.2223 32.9408 28.882 32.9393 27.511Z" fill="white"/>
<path d="M28.8278 15.697C30.0493 14.2744 30.6511 12.4458 30.5054 10.5996C28.6391 10.7898 26.9154 11.6551 25.6774 13.0232C25.072 13.6915 24.6085 14.469 24.3131 15.3113C24.0177 16.1536 23.8963 17.0441 23.9559 17.9319C24.8893 17.9412 25.8127 17.7449 26.6566 17.3578C27.5004 16.9707 28.2429 16.4028 28.8278 15.697Z" fill="white"/>
<path d="M52.7754 11.771C51.9707 11.771 51.3379 12.0544 50.877 12.6212C50.4161 13.1879 50.1856 13.9702 50.1856 14.9678C50.1856 16.012 50.4063 16.8019 50.8477 17.3376C51.293 17.8733 51.9357 18.1411 52.7754 18.1411C53.1387 18.1411 53.4903 18.1061 53.8302 18.0363C54.1699 17.9625 54.5235 17.8694 54.8907 17.7569V18.9504C54.2189 19.2028 53.4571 19.329 52.6055 19.329C51.3517 19.329 50.3887 18.9524 49.7169 18.1994C49.045 17.4425 48.709 16.3613 48.709 14.9561C48.709 14.071 48.8711 13.2967 49.1954 12.6328C49.5235 11.969 49.9962 11.4605 50.6134 11.1072C51.2306 10.754 51.9551 10.5774 52.7871 10.5774C53.6622 10.5774 54.4707 10.7598 55.213 11.1247L54.709 12.2834C54.4199 12.1476 54.1134 12.0292 53.7891 11.9283C53.4689 11.8234 53.1309 11.771 52.7754 11.771ZM62.3379 15.9808C62.3379 17.0329 62.0665 17.8539 61.5235 18.4439C60.9806 19.0339 60.2247 19.329 59.2559 19.329C58.6504 19.329 58.1153 19.1932 57.6505 18.9214C57.1857 18.6497 56.8282 18.2596 56.5782 17.751C56.3282 17.2425 56.2031 16.6525 56.2031 15.9808C56.2031 14.9366 56.4727 14.1215 57.0118 13.5353C57.5509 12.9492 58.3106 12.6561 59.2911 12.6561C60.2286 12.6561 60.9707 12.9569 61.5176 13.5586C62.0644 14.1565 62.3379 14.9639 62.3379 15.9808ZM57.6211 15.9808C57.6211 17.4676 58.1739 18.211 59.2794 18.211C60.3731 18.211 60.9199 17.4676 60.9199 15.9808C60.9199 14.5097 60.3692 13.7741 59.2676 13.7741C58.6895 13.7741 58.2695 13.9643 58.0079 14.3447C57.7501 14.7251 57.6211 15.2705 57.6211 15.9808ZM69.3867 19.2125H68.0039V15.2414C68.0039 14.7485 67.9102 14.3816 67.7227 14.141C67.5353 13.8964 67.2422 13.7741 66.8438 13.7741C66.3126 13.7741 65.9219 13.9468 65.6719 14.2923C65.4258 14.6339 65.3029 15.2045 65.3029 16.0042V19.2125H63.9258V12.7726H65.0039L65.1973 13.6169H65.2676C65.4472 13.3102 65.7071 13.0734 66.047 12.9065C66.3907 12.7396 66.7677 12.6561 67.1778 12.6561C68.1739 12.6561 68.834 12.9938 69.1583 13.6693H69.2521C69.4434 13.351 69.713 13.1025 70.0606 12.924C70.4083 12.7454 70.8067 12.6561 71.2559 12.6561C72.0294 12.6561 72.5918 12.8502 72.9434 13.2384C73.2989 13.6266 73.4766 14.2186 73.4766 15.0143V19.2125H72.0997V15.2414C72.0997 14.7485 72.0039 14.3816 71.8126 14.141C71.6251 13.8964 71.3321 13.7741 70.9337 13.7741C70.3985 13.7741 70.0059 13.941 69.7559 14.2748C69.5098 14.6048 69.3867 15.1132 69.3867 15.8004V19.2125ZM76.7754 19.2125H75.3985V12.7726H76.7754V19.2125ZM75.3165 11.0665C75.3165 10.8219 75.3829 10.6337 75.5157 10.5017C75.6525 10.3697 75.8458 10.3037 76.0958 10.3037C76.3379 10.3037 76.5254 10.3697 76.6583 10.5017C76.795 10.6337 76.8634 10.8219 76.8634 11.0665C76.8634 11.2994 76.795 11.4838 76.6583 11.6196C76.5254 11.7516 76.3379 11.8176 76.0958 11.8176C75.8458 11.8176 75.6525 11.7516 75.5157 11.6196C75.3829 11.4838 75.3165 11.2994 75.3165 11.0665ZM84.4513 19.2125H83.0685V15.253C83.0685 14.7561 82.9669 14.3854 82.7638 14.141C82.5645 13.8964 82.2462 13.7741 81.8086 13.7741C81.2266 13.7741 80.8009 13.9449 80.5313 14.2864C80.2618 14.628 80.127 15.2007 80.127 16.0042V19.2125H78.7501V12.7726H79.8282L80.0215 13.6169H80.0918C80.2871 13.3102 80.5645 13.0734 80.9239 12.9065C81.2833 12.7396 81.6817 12.6561 82.1193 12.6561C83.6739 12.6561 84.4513 13.4421 84.4513 15.0143V19.2125ZM91.8399 12.7726V13.5236L90.7325 13.7276C90.8341 13.8634 90.918 14.0303 90.9844 14.2283C91.0508 14.4262 91.0841 14.6358 91.0841 14.8571C91.0841 15.5209 90.8535 16.043 90.3926 16.4234C89.9317 16.8038 89.297 16.9941 88.4883 16.9941C88.2813 16.9941 88.0938 16.9786 87.9258 16.9474C87.629 17.1299 87.4806 17.3435 87.4806 17.5879C87.4806 17.7355 87.5488 17.8462 87.6856 17.9199C87.8262 17.9937 88.082 18.0305 88.4531 18.0305H89.5841C90.2989 18.0305 90.8418 18.1819 91.213 18.4847C91.5841 18.7875 91.7695 19.2242 91.7695 19.7949C91.7695 20.5245 91.4669 21.0874 90.8614 21.4834C90.2559 21.8793 89.3809 22.0773 88.2363 22.0773C87.3535 22.0773 86.6798 21.922 86.2149 21.6114C85.7501 21.301 85.5177 20.8584 85.5177 20.2839C85.5177 19.888 85.6426 19.5541 85.8926 19.2823C86.1466 19.0146 86.5 18.8283 86.9531 18.7235C86.7695 18.6458 86.6173 18.5215 86.4962 18.3507C86.379 18.1761 86.3203 17.9937 86.3203 17.8034C86.3203 17.5628 86.3887 17.359 86.5254 17.192C86.6622 17.0251 86.8652 16.8601 87.1348 16.6971C86.7988 16.5535 86.5254 16.3206 86.3145 15.9983C86.1075 15.6723 86.0039 15.2918 86.0039 14.8571C86.0039 14.1583 86.2247 13.6169 86.666 13.2326C87.1114 12.8483 87.7442 12.6561 88.5645 12.6561C88.7481 12.6561 88.9395 12.6697 89.1387 12.6969C89.3418 12.7202 89.4942 12.7454 89.5958 12.7726H91.8399ZM86.748 20.2141C86.748 20.509 86.8809 20.7361 87.1466 20.8953C87.4161 21.0544 87.793 21.134 88.2774 21.134C89.0274 21.134 89.586 21.0272 89.9531 20.8138C90.3203 20.6003 90.5039 20.3169 90.5039 19.9637C90.5039 19.6842 90.4025 19.4843 90.1993 19.364C90.0001 19.2475 89.627 19.1892 89.0802 19.1892H88.0371C87.6426 19.1892 87.3282 19.2805 87.0938 19.4629C86.8634 19.6492 86.748 19.8997 86.748 20.2141ZM87.3399 14.8571C87.3399 15.2608 87.4434 15.5714 87.6505 15.7887C87.8614 16.0062 88.1622 16.1148 88.5528 16.1148C89.3496 16.1148 89.748 15.6917 89.748 14.8455C89.748 14.4262 89.6485 14.104 89.4493 13.8789C89.2539 13.6499 88.9551 13.5353 88.5528 13.5353C88.1543 13.5353 87.8516 13.6479 87.6446 13.873C87.4415 14.0982 87.3399 14.4262 87.3399 14.8571ZM101.25 16.9009C101.25 17.6579 100.975 18.2518 100.424 18.6827C99.8731 19.1135 99.1134 19.329 98.1446 19.329C97.1758 19.329 96.3829 19.1795 95.7657 18.8806V17.5646C96.1563 17.7471 96.5703 17.8907 97.0079 17.9955C97.4492 18.1003 97.8594 18.1528 98.2383 18.1528C98.793 18.1528 99.2013 18.048 99.463 17.8384C99.7286 17.6287 99.8614 17.3473 99.8614 16.9941C99.8614 16.6757 99.7403 16.4059 99.498 16.1846C99.2559 15.9635 98.7559 15.7014 97.998 15.3986C97.2168 15.0842 96.6661 14.7251 96.3458 14.3214C96.0254 13.9177 95.8653 13.4325 95.8653 12.8657C95.8653 12.1553 96.1193 11.5964 96.627 11.1888C97.1349 10.7812 97.8165 10.5774 98.6719 10.5774C99.4922 10.5774 100.309 10.7559 101.121 11.1131L100.676 12.2485C99.914 11.9302 99.2345 11.771 98.6367 11.771C98.1837 11.771 97.8399 11.87 97.6055 12.068C97.3711 12.2621 97.2539 12.5202 97.2539 12.8424C97.2539 13.0637 97.3009 13.2539 97.3946 13.413C97.4883 13.5683 97.6426 13.7159 97.8575 13.8555C98.0723 13.9953 98.459 14.1798 99.0177 14.4087C99.6466 14.6688 100.108 14.9114 100.4 15.1366C100.693 15.3618 100.908 15.6159 101.045 15.8994C101.182 16.1828 101.25 16.5165 101.25 16.9009ZM108.51 15.9808C108.51 17.0329 108.238 17.8539 107.695 18.4439C107.152 19.0339 106.397 19.329 105.428 19.329C104.822 19.329 104.287 19.1932 103.822 18.9214C103.358 18.6497 103 18.2596 102.75 17.751C102.5 17.2425 102.375 16.6525 102.375 15.9808C102.375 14.9366 102.645 14.1215 103.184 13.5353C103.723 12.9492 104.482 12.6561 105.463 12.6561C106.4 12.6561 107.143 12.9569 107.69 13.5586C108.236 14.1565 108.51 14.9639 108.51 15.9808ZM103.793 15.9808C103.793 17.4676 104.346 18.211 105.451 18.211C106.545 18.211 107.092 17.4676 107.092 15.9808C107.092 14.5097 106.541 13.7741 105.44 13.7741C104.861 13.7741 104.442 13.9643 104.18 14.3447C103.922 14.7251 103.793 15.2705 103.793 15.9808ZM115.846 15.9808C115.846 17.0329 115.574 17.8539 115.031 18.4439C114.488 19.0339 113.732 19.329 112.764 19.329C112.158 19.329 111.623 19.1932 111.158 18.9214C110.693 18.6497 110.336 18.2596 110.086 17.751C109.836 17.2425 109.711 16.6525 109.711 15.9808C109.711 14.9366 109.981 14.1215 110.52 13.5353C111.059 12.9492 111.818 12.6561 112.799 12.6561C113.736 12.6561 114.479 12.9569 115.025 13.5586C115.572 14.1565 115.846 14.9639 115.846 15.9808ZM111.129 15.9808C111.129 17.4676 111.682 18.211 112.787 18.211C113.881 18.211 114.428 17.4676 114.428 15.9808C114.428 14.5097 113.877 13.7741 112.775 13.7741C112.197 13.7741 111.777 13.9643 111.516 14.3447C111.258 14.7251 111.129 15.2705 111.129 15.9808ZM123.135 19.2125H121.752V15.253C121.752 14.7561 121.65 14.3854 121.447 14.141C121.248 13.8964 120.93 13.7741 120.492 13.7741C119.91 13.7741 119.484 13.9449 119.215 14.2864C118.945 14.628 118.811 15.2007 118.811 16.0042V19.2125H117.434V12.7726H118.512L118.705 13.6169H118.775C118.971 13.3102 119.248 13.0734 119.608 12.9065C119.967 12.7396 120.365 12.6561 120.803 12.6561C122.358 12.6561 123.135 13.4421 123.135 15.0143V19.2125Z" fill="white"/>
<path d="M50.9414 40.4124H48.2344L53.7421 24.5163H56.7188L62.2148 40.4124H59.4024L57.9844 36.0104H52.371L50.9414 40.4124ZM55.2421 27.2646H55.1366L52.9688 33.984H57.3866L55.2421 27.2646ZM69.6858 40.5871C68.0804 40.5871 66.8616 39.8301 66.2053 38.7005H66.1116V44.5H63.51V28.1032H66.0413V29.9082H66.135C66.8148 28.732 68.0804 27.9401 69.7444 27.9401C72.5217 27.9401 74.5022 30.0247 74.5022 33.7046V34.7993C74.5022 38.4559 72.5452 40.5871 69.6858 40.5871ZM69.0881 38.4559C70.7405 38.4559 71.8654 37.1401 71.8654 34.6595V33.7978C71.8654 31.4105 70.8108 30.0479 69.0413 30.0479C67.2249 30.0479 66.0881 31.5153 66.0881 33.7861V34.6595C66.0881 36.9886 67.2366 38.4559 69.0881 38.4559ZM82.9106 40.5871C81.3052 40.5871 80.0865 39.8301 79.4302 38.7005H79.3365V44.5H76.7349V28.1032H79.2661V29.9082H79.36C80.0396 28.732 81.3052 27.9401 82.9693 27.9401C85.7466 27.9401 87.7272 30.0247 87.7272 33.7046V34.7993C87.7272 38.4559 85.7701 40.5871 82.9106 40.5871ZM82.313 38.4559C83.9654 38.4559 85.0904 37.1401 85.0904 34.6595V33.7978C85.0904 31.4105 84.0357 30.0479 82.2661 30.0479C80.4497 30.0479 79.313 31.5153 79.313 33.7861V34.6595C79.313 36.9886 80.4614 38.4559 82.313 38.4559ZM93.1182 35.9987H95.7198C95.837 37.373 97.0558 38.5492 99.3176 38.5492C101.392 38.5492 102.622 37.5826 102.622 36.0803C102.622 34.8691 101.802 34.217 100.091 33.8094L97.466 33.1573C95.4034 32.6799 93.5518 31.457 93.5518 28.8717C93.5518 25.8323 96.2238 24.167 99.3293 24.167C102.435 24.167 105.025 25.8323 105.083 28.8018H102.529C102.411 27.451 101.368 26.333 99.2941 26.333C97.466 26.333 96.2238 27.1948 96.2238 28.6737C96.2238 29.7103 96.9504 30.4556 98.4386 30.7932L101.052 31.4337C103.454 32.016 105.282 33.1456 105.282 35.8474C105.282 38.9684 102.739 40.7268 99.1182 40.7268C94.6652 40.7268 93.1769 38.1415 93.1182 35.9987ZM108.453 28.1032V25.1103H111.007V28.1032H113.421V30.176H111.007V36.744C111.007 38.0833 111.511 38.4559 112.906 38.4559C113.128 38.4559 113.339 38.4559 113.492 38.4327V40.4124C113.281 40.4474 112.789 40.4939 112.261 40.4939C109.249 40.4939 108.417 39.4225 108.417 36.9536V30.176H106.707V28.1032H108.453ZM120.447 27.8936C124.009 27.8936 125.943 30.3856 125.943 33.7396V34.7294C125.943 38.1998 124.021 40.622 120.447 40.622C116.873 40.622 114.927 38.1998 114.927 34.7294V33.7396C114.927 30.3973 116.884 27.8936 120.447 27.8936ZM120.447 29.9664C118.513 29.9664 117.553 31.5385 117.553 33.7744V34.7177C117.553 36.9188 118.502 38.5375 120.447 38.5375C122.392 38.5375 123.33 36.9305 123.33 34.7177V33.7744C123.33 31.5268 122.381 29.9664 120.447 29.9664ZM128.141 40.4124V28.1032H130.742V29.7218H130.836C131.152 28.9533 132.078 27.9284 133.801 27.9284C134.141 27.9284 134.433 27.9517 134.68 27.9984V30.2808C134.457 30.2226 134 30.1877 133.567 30.1877C131.481 30.1877 130.777 31.4687 130.777 33.1223V40.4124H128.141ZM140.991 40.622C137.675 40.622 135.565 38.4443 135.565 34.7993V33.5532C135.565 30.1178 137.627 27.8936 140.885 27.8936C144.189 27.8936 146.181 30.1993 146.181 33.6696V34.8458H138.131V35.1371C138.131 37.2099 139.256 38.5841 141.025 38.5841C142.349 38.5841 143.252 37.9319 143.569 36.8722H146.041C145.667 38.8636 144.049 40.622 140.991 40.622ZM138.131 33.0408H143.639V33.0175C143.639 31.2707 142.549 29.8966 140.897 29.8966C139.221 29.8966 138.131 31.2707 138.131 33.0175V33.0408Z" fill="white"/>
</g>
<defs>
<clipPath id="clip0_113_257">
<rect width="160" height="53" fill="white"/>
</clipPath>
</defs>
</svg>
