<svg width="50" height="50" viewBox="0 0 50 50" fill="none" xmlns="http://www.w3.org/2000/svg">
<path d="M42.6727 6.2205C41.9165 6.03509 41.0569 6.06428 40.0035 6.34969C33.901 8.00386 9.64292 15.8872 7.64667 16.7705C5.47104 17.733 4.21563 19.4288 4.19625 21.6538C4.17042 24.6288 6.56834 26.9643 9.40459 26.8643C9.49584 26.8622 13.0052 26.9101 15.0035 26.931C15.0035 26.931 16.7873 35.8497 16.8304 35.956C17.351 37.2351 18.5723 37.6164 19.6258 37.156L25.5504 34.5497C26.221 35.2101 30.7302 39.5664 31.2144 39.9559C32.6573 41.1143 33.9042 41.4789 35.4463 41.5184C37.929 41.583 40.0977 40.1226 41.2404 37.7414C41.9577 36.2476 45.3008 15.3289 45.6025 13.2539C46.0815 9.9601 45.9731 8.66635 44.6258 7.32677C44.0844 6.78927 43.4292 6.40384 42.6727 6.2205ZM41.696 10.2601C41.696 10.2601 41.7973 10.6288 41.5008 12.6663C40.4402 19.9622 37.9267 34.8893 37.3994 36.1122C37.0392 36.9497 36.3173 37.3726 35.5113 37.3497C34.8019 37.3309 34.4488 37.206 33.8185 36.6997C33.4944 36.4393 32.0358 35.0539 29.9775 33.0518C29.9517 33.0268 25.8721 29.0455 25.8721 29.0455C25.4744 28.6497 25.1006 28.4142 24.3175 28.4059C23.8621 28.4059 23.261 28.7518 23.261 28.7518L20.1281 31.4039L19.04 26.083L32.1258 20.483C33.1829 20.0289 33.6873 18.8038 33.2327 17.7476C32.7783 16.6892 31.5554 16.1851 30.4983 16.6393L16.3056 22.7622C15.4975 22.758 9.47563 22.6893 9.27438 22.6976C8.81084 22.7122 8.35771 22.258 8.36292 21.6538C8.36709 21.1705 8.58021 20.883 9.33938 20.5476C11.099 19.7685 35.0642 11.9955 40.9792 10.3934C41.5371 10.2413 41.696 10.2601 41.696 10.2601Z" fill="#2A343D"/>
</svg>
