<svg width="50" height="50" viewBox="0 0 50 50" fill="none" xmlns="http://www.w3.org/2000/svg">
<g clip-path="url(#clip0_113_3563)">
<mask id="mask0_113_3563" style="mask-type:luminance" maskUnits="userSpaceOnUse" x="0" y="0" width="50" height="50">
<path d="M50 0H0V50H50V0Z" fill="white"/>
</mask>
<g mask="url(#mask0_113_3563)">
<path d="M26.1041 0.0416666C28.8334 0 31.5416 0.0208334 34.25 0C34.4166 3.1875 35.5625 6.4375 37.8959 8.6875C40.2291 11 43.5209 12.0625 46.7291 12.4166V20.8125C43.7291 20.7084 40.7084 20.0834 37.9791 18.7916C36.7916 18.25 35.6875 17.5625 34.6041 16.8541C34.5834 22.9375 34.625 29.0209 34.5625 35.0834C34.3959 38 33.4375 40.8959 31.75 43.2916C29.0209 47.2916 24.2916 49.8959 19.4375 49.9791C16.4584 50.1459 13.4791 49.3334 10.9375 47.8334C6.72917 45.3541 3.77084 40.8125 3.33334 35.9375C3.29167 34.8959 3.27084 33.8541 3.31251 32.8334C3.68751 28.875 5.64584 25.0834 8.6875 22.5C12.1459 19.5 16.9791 18.0625 21.5 18.9166C21.5416 22 21.4166 25.0834 21.4166 28.1666C19.3541 27.5 16.9375 27.6875 15.125 28.9375C13.8125 29.7916 12.8125 31.1041 12.2916 32.5834C11.8541 33.6459 11.9791 34.8125 12 35.9375C12.5 39.3541 15.7916 42.2291 19.2916 41.9166C21.625 41.8959 23.8541 40.5416 25.0625 38.5625C25.4584 37.875 25.8959 37.1666 25.9166 36.3541C26.125 32.625 26.0416 28.9166 26.0625 25.1875C26.0834 16.7916 26.0416 8.41664 26.1041 0.0416666Z" fill="#111928"/>
</g>
</g>
<defs>
<clipPath id="clip0_113_3563">
<rect width="50" height="50" fill="white"/>
</clipPath>
</defs>
</svg>
